<svg width="61" height="60" viewBox="0 0 61 60" fill="none" xmlns="http://www.w3.org/2000/svg">
<g clip-path="url(#clip0_17:2)">
<path d="M39.4991 0H21.0809C4.27344 0 0.289062 3.98438 0.289062 20.7919V39.21C0.289062 56.0175 4.27344 60.0019 21.0809 60.0019H39.4991C56.3066 60.0019 60.2909 56.0175 60.2909 39.21V20.7919C60.2909 3.98438 56.2672 0 39.4991 0ZM48.7278 42.8025H44.3722C42.7222 42.8025 42.2141 41.4937 39.2459 38.4862C36.6678 35.9869 35.5259 35.655 34.8903 35.655C33.9922 35.655 33.7372 35.9081 33.7372 37.14V41.0756C33.7372 42.1312 33.4053 42.765 30.6116 42.765C25.9916 42.765 20.8653 39.9712 17.2709 34.7662C11.8503 27.1387 10.3672 21.4256 10.3672 20.2444C10.3672 19.6087 10.6203 19.0144 11.8409 19.0144H16.2059C17.3103 19.0144 17.7303 19.5225 18.1597 20.7037C20.3178 26.9344 23.9122 32.3925 25.3953 32.3925C25.9428 32.3925 26.1959 32.1394 26.1959 30.7425V24.3075C26.0291 21.3394 24.4672 21.0844 24.4672 20.0306C24.4672 19.5225 24.8872 19.0144 25.5603 19.0144H32.4247C33.3528 19.0144 33.6941 19.5225 33.6941 20.6156V29.2969C33.6941 30.2344 34.1141 30.5663 34.3672 30.5663C34.9147 30.5663 35.3834 30.2344 36.3978 29.2181C39.5328 25.7025 41.7791 20.2819 41.7791 20.2819C42.0716 19.6463 42.5797 19.0519 43.6841 19.0519H48.0491C49.3578 19.0519 49.6503 19.725 49.3578 20.6625C48.8103 23.2013 43.4684 30.7406 43.4684 30.7406C43.0091 31.5019 42.8328 31.8337 43.4684 32.6831C43.9372 33.3187 45.4616 34.6369 46.4759 35.8181C48.3416 37.9369 49.7759 39.7144 50.1584 40.9444C50.5878 42.165 49.9541 42.8006 48.7222 42.8006L48.7278 42.8025Z" fill="#262626"/>
</g>
<defs>
<clipPath id="clip0_17:2">
<rect width="60" height="60" fill="white" transform="translate(0.290039)"/>
</clipPath>
</defs>
</svg>
