<svg width="61" height="60" viewBox="0 0 61 60" fill="none" xmlns="http://www.w3.org/2000/svg">
<path d="M59.5894 57.1261L57.1847 59.5308C56.8328 59.8436 56.4223 60 55.9531 60C55.4839 60 55.0929 59.8436 54.7801 59.5308L45.9238 50.6745C43.8514 51.8866 41.6813 52.4927 39.4135 52.4927C35.7771 52.4927 32.6784 51.2121 30.1173 48.651C27.5562 46.0899 26.2757 42.9912 26.2757 39.3548C26.2757 36.8133 26.9599 34.477 28.3284 32.346C29.697 30.2151 31.5152 28.6217 33.783 27.566V22.522H31.9062C31.3979 22.522 30.958 22.3363 30.5865 21.9648C30.2151 21.5934 30.0293 21.1535 30.0293 20.6452C30.0293 20.1369 30.2151 19.697 30.5865 19.3255C30.958 18.9541 31.3979 18.7683 31.9062 18.7683H35.6598C36.1681 18.7683 36.608 18.9541 36.9795 19.3255C37.3509 19.697 37.5367 20.1369 37.5367 20.6452V26.4516C38.436 26.3343 39.0616 26.2757 39.4135 26.2757C42.9717 26.2757 46.0411 27.5269 48.6217 30.0293H48.7977V22.522H46.9208C46.4125 22.522 45.9726 22.3363 45.6012 21.9648C45.2297 21.5934 45.044 21.1535 45.044 20.6452C45.044 20.1369 45.2297 19.697 45.6012 19.3255C45.9726 18.9541 46.4125 18.7683 46.9208 18.7683H50.6745C51.1828 18.7683 51.6227 18.9541 51.9941 19.3255C52.3656 19.697 52.5513 20.1369 52.5513 20.6452V30.0293H54.4282C54.9365 30.0293 55.3763 30.2151 55.7478 30.5865C56.1193 30.958 56.305 31.3979 56.305 31.9062C56.305 32.4145 56.1193 32.8544 55.7478 33.2258C55.3763 33.5973 54.9365 33.783 54.4282 33.783H51.261C52.1212 35.6207 52.5513 37.478 52.5513 39.3548C52.5513 41.6618 51.9453 43.8514 50.7331 45.9238L59.5894 54.7214C59.9022 55.0733 60.0586 55.4741 60.0586 55.9238C60.0586 56.3734 59.9022 56.7742 59.5894 57.1261ZM39.4135 30.0293C36.8328 30.0293 34.6237 30.9384 32.7859 32.7566C30.9482 34.5748 30.0293 36.784 30.0293 39.3842C30.0293 41.9844 30.9482 44.1936 32.7859 46.0117C34.6237 47.8299 36.8328 48.739 39.4135 48.739C41.9941 48.739 44.2033 47.8299 46.0411 46.0117C47.8788 44.1936 48.7977 41.9844 48.7977 39.3842C48.7977 36.784 47.8788 34.5748 46.0411 32.7566C44.2033 30.9384 41.9941 30.0293 39.4135 30.0293ZM54.4282 15.0147H46.9208C46.4125 15.0147 45.9726 14.8289 45.6012 14.4575C45.2297 14.086 45.044 13.6461 45.044 13.1378V1.87683C45.044 1.36852 45.2297 0.928641 45.6012 0.557185C45.9726 0.185728 46.4125 0 46.9208 0H54.4282C54.9365 0 55.3763 0.185728 55.7478 0.557185C56.1193 0.928641 56.305 1.36852 56.305 1.87683V13.1378C56.305 13.6461 56.1193 14.086 55.7478 14.4575C55.3763 14.8289 54.9365 15.0147 54.4282 15.0147ZM52.5513 5.6305C52.5513 5.12219 52.3656 4.68231 51.9941 4.31085C51.6227 3.93939 51.1828 3.75367 50.6745 3.75367C50.1662 3.75367 49.7263 3.93939 49.3548 4.31085C48.9834 4.68231 48.7977 5.12219 48.7977 5.6305V9.38416C48.7977 9.89247 48.9834 10.3324 49.3548 10.7038C49.7263 11.0753 50.1662 11.261 50.6745 11.261C51.1828 11.261 51.6227 11.0753 51.9941 10.7038C52.3656 10.3324 52.5513 9.89247 52.5513 9.38416V5.6305ZM39.4135 15.0147H31.9062C31.3979 15.0147 30.958 14.8289 30.5865 14.4575C30.2151 14.086 30.0293 13.6461 30.0293 13.1378C30.0293 12.6295 30.2151 12.1896 30.5865 11.8182C30.958 11.4467 31.3979 11.261 31.9062 11.261H33.783V3.75367H31.9062C31.3979 3.75367 30.958 3.56794 30.5865 3.19648C30.2151 2.82502 30.0293 2.38514 30.0293 1.87683C30.0293 1.36852 30.2151 0.928641 30.5865 0.557185C30.958 0.185728 31.3979 0 31.9062 0H35.6598C36.1681 0 36.608 0.185728 36.9795 0.557185C37.3509 0.928641 37.5367 1.36852 37.5367 1.87683V11.261H39.4135C39.9218 11.261 40.3617 11.4467 40.7331 11.8182C41.1046 12.1896 41.2903 12.6295 41.2903 13.1378C41.2903 13.6461 41.1046 14.086 40.7331 14.4575C40.3617 14.8289 39.9218 15.0147 39.4135 15.0147ZM24.3988 33.783H16.8915C16.3832 33.783 15.9433 33.5973 15.5718 33.2258C15.2004 32.8544 15.0147 32.4145 15.0147 31.9062V20.6452C15.0147 20.1369 15.2004 19.697 15.5718 19.3255C15.9433 18.9541 16.3832 18.7683 16.8915 18.7683H24.3988C24.9071 18.7683 25.347 18.9541 25.7185 19.3255C26.0899 19.697 26.2757 20.1369 26.2757 20.6452V31.9062C26.2757 32.4145 26.0899 32.8544 25.7185 33.2258C25.347 33.5973 24.9071 33.783 24.3988 33.783ZM22.522 24.3988C22.522 23.8905 22.3363 23.4506 21.9648 23.0792C21.5934 22.7077 21.1535 22.522 20.6452 22.522C20.1369 22.522 19.697 22.7077 19.3255 23.0792C18.9541 23.4506 18.7683 23.8905 18.7683 24.3988V28.1525C18.7683 28.6608 18.9541 29.1007 19.3255 29.4721C19.697 29.8436 20.1369 30.0293 20.6452 30.0293C21.1535 30.0293 21.5934 29.8436 21.9648 29.4721C22.3363 29.1007 22.522 28.6608 22.522 28.1525V24.3988ZM24.3988 15.0147H16.8915C16.3832 15.0147 15.9433 14.8289 15.5718 14.4575C15.2004 14.086 15.0147 13.6461 15.0147 13.1378C15.0147 12.6295 15.2004 12.1896 15.5718 11.8182C15.9433 11.4467 16.3832 11.261 16.8915 11.261H18.7683V3.75367H16.8915C16.3832 3.75367 15.9433 3.56794 15.5718 3.19648C15.2004 2.82502 15.0147 2.38514 15.0147 1.87683C15.0147 1.36852 15.2004 0.928641 15.5718 0.557185C15.9433 0.185728 16.3832 0 16.8915 0H20.6452C21.1535 0 21.5934 0.185728 21.9648 0.557185C22.3363 0.928641 22.522 1.36852 22.522 1.87683V11.261H24.3988C24.9071 11.261 25.347 11.4467 25.7185 11.8182C26.0899 12.1896 26.2757 12.6295 26.2757 13.1378C26.2757 13.6461 26.0899 14.086 25.7185 14.4575C25.347 14.8289 24.9071 15.0147 24.3988 15.0147ZM9.38416 52.5513H1.87683C1.36852 52.5513 0.928641 52.3656 0.557185 51.9941C0.185728 51.6227 0 51.1828 0 50.6745V39.4135C0 38.9052 0.185728 38.4653 0.557185 38.0938C0.928641 37.7224 1.36852 37.5367 1.87683 37.5367H9.38416C9.89247 37.5367 10.3324 37.7224 10.7038 38.0938C11.0753 38.4653 11.261 38.9052 11.261 39.4135V50.6745C11.261 51.1828 11.0753 51.6227 10.7038 51.9941C10.3324 52.3656 9.89247 52.5513 9.38416 52.5513ZM7.50733 43.1672C7.50733 42.6588 7.3216 42.219 6.95015 41.8475C6.57869 41.4761 6.13881 41.2903 5.6305 41.2903C5.12219 41.2903 4.68231 41.4761 4.31085 41.8475C3.93939 42.219 3.75367 42.6588 3.75367 43.1672V46.9208C3.75367 47.4291 3.93939 47.869 4.31085 48.2405C4.68231 48.6119 5.12219 48.7977 5.6305 48.7977C6.13881 48.7977 6.57869 48.6119 6.95015 48.2405C7.3216 47.869 7.50733 47.4291 7.50733 46.9208V43.1672ZM9.38416 33.783H1.87683C1.36852 33.783 0.928641 33.5973 0.557185 33.2258C0.185728 32.8544 0 32.4145 0 31.9062C0 31.3979 0.185728 30.958 0.557185 30.5865C0.928641 30.2151 1.36852 30.0293 1.87683 30.0293H3.75367V22.522H1.87683C1.36852 22.522 0.928641 22.3363 0.557185 21.9648C0.185728 21.5934 0 21.1535 0 20.6452C0 20.1369 0.185728 19.697 0.557185 19.3255C0.928641 18.9541 1.36852 18.7683 1.87683 18.7683H5.6305C6.13881 18.7683 6.57869 18.9541 6.95015 19.3255C7.3216 19.697 7.50733 20.1369 7.50733 20.6452V30.0293H9.38416C9.89247 30.0293 10.3324 30.2151 10.7038 30.5865C11.0753 30.958 11.261 31.3979 11.261 31.9062C11.261 32.4145 11.0753 32.8544 10.7038 33.2258C10.3324 33.5973 9.89247 33.783 9.38416 33.783ZM9.38416 15.0147H1.87683C1.36852 15.0147 0.928641 14.8289 0.557185 14.4575C0.185728 14.086 0 13.6461 0 13.1378V1.87683C0 1.36852 0.185728 0.928641 0.557185 0.557185C0.928641 0.185728 1.36852 0 1.87683 0H9.38416C9.89247 0 10.3324 0.185728 10.7038 0.557185C11.0753 0.928641 11.261 1.36852 11.261 1.87683V13.1378C11.261 13.6461 11.0753 14.086 10.7038 14.4575C10.3324 14.8289 9.89247 15.0147 9.38416 15.0147ZM7.50733 5.6305C7.50733 5.12219 7.3216 4.68231 6.95015 4.31085C6.57869 3.93939 6.13881 3.75367 5.6305 3.75367C5.12219 3.75367 4.68231 3.93939 4.31085 4.31085C3.93939 4.68231 3.75367 5.12219 3.75367 5.6305V9.38416C3.75367 9.89247 3.93939 10.3324 4.31085 10.7038C4.68231 11.0753 5.12219 11.261 5.6305 11.261C6.13881 11.261 6.57869 11.0753 6.95015 10.7038C7.3216 10.3324 7.50733 9.89247 7.50733 9.38416V5.6305ZM16.8915 41.2903C16.3832 41.2903 15.9433 41.1046 15.5718 40.7331C15.2004 40.3617 15.0147 39.9218 15.0147 39.4135C15.0147 38.9052 15.2004 38.4653 15.5718 38.0938C15.9433 37.7224 16.3832 37.5367 16.8915 37.5367H20.6452C21.1535 37.5367 21.5934 37.7224 21.9648 38.0938C22.3363 38.4653 22.522 38.9052 22.522 39.4135V48.7977H24.3988C24.9071 48.7977 25.347 48.9834 25.7185 49.3548C26.0899 49.7263 26.2757 50.1662 26.2757 50.6745C26.2757 51.1828 26.0899 51.6227 25.7185 51.9941C25.347 52.3656 24.9071 52.5513 24.3988 52.5513H16.8915C16.3832 52.5513 15.9433 52.3656 15.5718 51.9941C15.2004 51.6227 15.0147 51.1828 15.0147 50.6745C15.0147 50.1662 15.2004 49.7263 15.5718 49.3548C15.9433 48.9834 16.3832 48.7977 16.8915 48.7977H18.7683V41.2903H16.8915Z" fill="#262626"/>
</svg>
