<svg id="Layer_1" enable-background="new 0 0 68 68" viewBox="0 0 68 68" xmlns="http://www.w3.org/2000/svg"><g><g><path d="m34.0483398 47.4331055c3.8999634 0 7.0899658-3.1700439 7.0899658-7.0800781 0-3.9199219-3.1900024-7.0899658-7.0899658-7.0899658-3.9100342 0-7.0800171 3.1700439-7.0800171 7.0899658.0000001 3.9100341 3.169983 7.0800781 7.0800171 7.0800781z" fill="#000000" style="fill: rgb(38, 38, 38);"></path><path d="m8.8755493 59.1271973h50.2509766v-37.5478516h-50.2509766zm14.7890625-35.1425782h.9765625c.4140625 0 .75.3359375.75.75s-.3359375.75-.75.75h-.9765625c-.4140625 0-.75-.3359375-.75-.75s.3359375-.75.75-.75zm1.1837158 6.798462h.0100098c.6099854.3599854 1.3699951.3199463 1.9299927-.1099854.7600098-.5600586 1.5700073-1.0400391 2.4500122-1.4100342.6399536-.2799072 1.0499878-.9200439 1.0499878-1.6199951 0-.9799805.789978-1.7700195 1.7700195-1.7700195h3.8899536c.9700317 0 1.7700195.7900391 1.7700195 1.7700195 0 .6999512.4099731 1.3400879 1.0499878 1.6199951.8699951.3699951 1.6900024.8499756 2.4400024 1.4100342.5599976.4299316 1.3200073.4699707 1.9299927.1099854h.0100098c.8500366-.4899902 1.9299927-.2000732 2.4199829.6500244l1.9500122 3.3599854c.4899902.8499756.1900024 1.9300537-.6499634 2.4200439-.5500488.3099365-.8800049.8898926-.8800049 1.5100098 0 .0699463 0 .1499023.0100098.2199707.0499878.4599609.0799561.9299316.0799561 1.4099121s-.0299683.9500732-.0799561 1.4100342c-.0900269.7000732.2599487 1.3699951.8699951 1.7301025.8399658.4899902 1.1399536 1.5699463.6499634 2.4199219l-1.9500122 3.3599854c-.4899902.8499756-1.5699463 1.1400146-2.4199829.6500244l-.0100098-.0100098c-.6099854-.3499756-1.3699951-.3100586-1.9299927.1099854-.75.5699463-1.5700073 1.0400391-2.4400024 1.4200439-.6400146.2800293-1.0499878.9199219-1.0499878 1.6199951 0 .9799805-.7999878 1.7698975-1.7700195 1.7698975h-3.8899536c-.9800415 0-1.7700195-.789917-1.7700195-1.7698975 0-.7000732-.4100342-1.3399658-1.0499878-1.6199951-.8800049-.3800049-1.6900024-.8500977-2.4500122-1.4200439-.5599976-.4200439-1.3200073-.4599609-1.9299927-.1099854l-.0100098.0100098c-.8400269.4899902-1.9299927.1999512-2.4199829-.6500244l-1.9400024-3.3599854c-.4899902-.8499756-.2000122-1.9299316.6499634-2.4199219.5499878-.3300781.8800049-.9001465.8800049-1.5300293 0-.0600586 0-.130127-.0100098-.2000732-.0599976-.4599609-.0899658-.9300537-.0899658-1.4100342s.0299683-.9499512.0899658-1.4099121c.0800171-.6999512-.2599487-1.3800049-.8699951-1.7299805-.5700073-.3300781-.8899536-.9200439-.8899536-1.5300293 0-.3100586.0799561-.6101074.2399902-.8900146l1.9400024-3.3599854c.4899903-.8500977 1.5799561-1.1400147 2.4199829-.6500244zm-13.5675249-6.048462c0-.4140625.3359575-.75.75-.75h8.1386919c.4140625 0 .75.3359375.75.75s-.3359375.75-.75.75h-7.3886919v5.0361328c0 .4140625-.3359175.75-.75.75-.4140425 0-.75-.3359375-.75-.75z" fill="#000000" style="fill: rgb(38, 38, 38);"></path><path d="m2.7583008 16.9631348v44.8499756c0 1.8900146 1.5300293 3.4300537 3.4299927 3.4300537h55.6200562c1.9099731 0 3.4400024-1.5400391 3.4400024-3.4300537v-44.8499756zm57.8699951 42.9099121c0 .4200439-.3399658.75-.75.75h-51.75c-.4199829 0-.75-.3299561-.75-.75v-39.0400391c0-.4199219.3300171-.75.75-.75h51.75c.4100342 0 .75.3300781.75.75z" fill="#000000" style="fill: rgb(38, 38, 38);"></path></g><path d="m61.8109131 2.7568359h-55.6265869c-1.895874 0-3.4326782 1.5367432-3.4326782 3.4324951v9.2687988h62.4920654v-9.2687987c0-1.895752-1.5369263-3.4324952-3.4328003-3.4324952zm-50.8165283 8.8503418c-1.3822021 0-2.500061-1.1179199-2.500061-2.5s1.1178589-2.5 2.500061-2.5c1.3766479 0 2.499939 1.1179199 2.499939 2.5s-1.1232911 2.5-2.499939 2.5zm8.8156128 0c-1.3822021 0-2.500061-1.1179199-2.500061-2.5s1.1178589-2.5 2.500061-2.5c1.3766479 0 2.499939 1.1179199 2.499939 2.5s-1.1232911 2.5-2.499939 2.5zm41.72583-1.0750732c-.3647461.364624-.8635254.5880127-1.4217529.5880127h-29.6793213c-1.1090698 0-2.0097656-.9006348-2.0097656-2.0172119 0-.5509033.2233887-1.0570068.5880737-1.4217529.3647461-.3647461.8709106-.5881348 1.4216919-.5881348h29.6793213c1.1090698 0 2.0098267.9007568 2.0098267 2.0098877 0 .5582275-.2233277 1.0644531-.5880738 1.4291992z" fill="#000000" style="fill: rgb(38, 38, 38);"></path></g></svg>