<!-- icon666.com - MILLIONS vector ICONS FREE --><svg id="Layer_5" enable-background="new 0 0 64 64" viewBox="0 0 64 64" xmlns="http://www.w3.org/2000/svg"><g><path d="m35 38v6h-11v2h11v6c0 1.654 1.346 3 3 3h3v-2h-3c-.552 0-1-.448-1-1v-14c0-.552.448-1 1-1h3v-2h-3c-1.654 0-3 1.346-3 3z" fill="#000000" style="fill: rgb(34, 34, 34);"></path><path d="m60 49h-16c-.552 0-1 .448-1 1v8c0 .552.448 1 1 1h16c.552 0 1-.448 1-1v-8c0-.552-.448-1-1-1zm-13 6h-2v-2h2zm4 0h-2v-2h2zm4 0h-2v-2h2zm4 0h-2v-2h2z" fill="#000000" style="fill: rgb(34, 34, 34);"></path><path d="m17.005 55.202-3.002-2.001-1.64 1.092 3.954 6.328c.297.473 1.068.473 1.365 0l3.955-6.329-1.635-1.091z" fill="#000000" style="fill: rgb(34, 34, 34);"></path><path d="m16.005 52.132-.005-23.132h-4v23.133l2.003-1.334z" fill="#000000" style="fill: rgb(34, 34, 34);"></path><path d="m18.005 52.131 1.998-1.333 1.997 1.332v-23.13h-4z" fill="#000000" style="fill: rgb(34, 34, 34);"></path><path d="m17 19c-2.757 0-5 2.243-5 5v3h10v-3c0-2.757-2.243-5-5-5z" fill="#000000" style="fill: rgb(34, 34, 34);"></path><path d="m58.872 29c1.352-1.316 2.128-3.115 2.128-5 0-3.859-3.141-7-7-7-.75 0-1.499.124-2.226.368l-.969.325-.305-.976c-1.439-4.615-5.659-7.717-10.5-7.717-.825 0-1.68.104-2.54.307l-.655.155-.391-.549c-2.629-3.703-6.895-5.913-11.414-5.913-6.647 0-12.419 4.724-13.724 11.231l-.148.742-.755.059c-4.135.322-7.373 3.822-7.373 7.968 0 4.072 3.06 7.436 7 7.931v-6.931c0-3.859 3.141-7 7-7s7 3.141 7 7v7h17.184c.414-1.161 1.514-2 2.816-2zm-4.872-10c2.757 0 5 2.243 5 5h-2c0-1.654-1.346-3-3-3zm-29-12c-3.775 0-7.189 2.091-8.91 5.455l-1.781-.91c2.064-4.037 6.161-6.545 10.691-6.545zm2.181-1.802c.745.137 1.48.346 2.184.62l-.729 1.863c-.585-.229-1.195-.402-1.816-.517zm7.526 21.095-1.414 1.414-6.707-6.707 6.707-6.707 1.414 1.414-5.293 5.293zm2.285 2.831-1.984-.248 2-16 1.984.248zm3.715-1.417-1.414-1.414 5.293-5.293-5.293-5.293 1.414-1.414 6.707 6.707z" fill="#000000" style="fill: rgb(34, 34, 34);"></path><path d="m60 31h-16c-.552 0-1 .448-1 1v8c0 .552.448 1 1 1h16c.552 0 1-.448 1-1v-8c0-.552-.448-1-1-1zm-13 6h-2v-2h2zm4 0h-2v-2h2zm4 0h-2v-2h2zm4 0h-2v-2h2z" fill="#000000" style="fill: rgb(34, 34, 34);"></path></g></svg>