<svg width="69" height="68" viewBox="0 0 69 68" fill="none" xmlns="http://www.w3.org/2000/svg">
<g filter="url(#filter0_d_10:25)">
<path d="M63.5894 57.1261L61.1847 59.5308C60.8328 59.8436 60.4223 60 59.9531 60C59.4839 60 59.0929 59.8436 58.7801 59.5308L49.9238 50.6745C47.8514 51.8866 45.6813 52.4927 43.4135 52.4927C39.7771 52.4927 36.6784 51.2121 34.1173 48.651C31.5562 46.0899 30.2757 42.9912 30.2757 39.3548C30.2757 36.8133 30.9599 34.477 32.3284 32.346C33.697 30.2151 35.5151 28.6217 37.783 27.566V22.522H35.9062C35.3978 22.522 34.958 22.3363 34.5865 21.9648C34.2151 21.5934 34.0293 21.1535 34.0293 20.6452C34.0293 20.1369 34.2151 19.697 34.5865 19.3255C34.958 18.9541 35.3978 18.7683 35.9062 18.7683H39.6598C40.1681 18.7683 40.608 18.9541 40.9795 19.3255C41.3509 19.697 41.5367 20.1369 41.5367 20.6452V26.4516C42.436 26.3343 43.0616 26.2757 43.4135 26.2757C46.9717 26.2757 50.0411 27.5269 52.6217 30.0293H52.7977V22.522H50.9208C50.4125 22.522 49.9726 22.3363 49.6012 21.9648C49.2297 21.5934 49.044 21.1535 49.044 20.6452C49.044 20.1369 49.2297 19.697 49.6012 19.3255C49.9726 18.9541 50.4125 18.7683 50.9208 18.7683H54.6745C55.1828 18.7683 55.6227 18.9541 55.9941 19.3255C56.3656 19.697 56.5513 20.1369 56.5513 20.6452V30.0293H58.4282C58.9365 30.0293 59.3763 30.2151 59.7478 30.5865C60.1193 30.958 60.305 31.3978 60.305 31.9062C60.305 32.4145 60.1193 32.8544 59.7478 33.2258C59.3763 33.5973 58.9365 33.783 58.4282 33.783H55.261C56.1212 35.6207 56.5513 37.478 56.5513 39.3548C56.5513 41.6618 55.9453 43.8514 54.7331 45.9238L63.5894 54.7214C63.9022 55.0733 64.0586 55.4741 64.0586 55.9238C64.0586 56.3734 63.9022 56.7742 63.5894 57.1261V57.1261ZM43.4135 30.0293C40.8328 30.0293 38.6237 30.9384 36.7859 32.7566C34.9482 34.5748 34.0293 36.784 34.0293 39.3842C34.0293 41.9844 34.9482 44.1935 36.7859 46.0117C38.6237 47.8299 40.8328 48.739 43.4135 48.739C45.9941 48.739 48.2033 47.8299 50.0411 46.0117C51.8788 44.1935 52.7977 41.9844 52.7977 39.3842C52.7977 36.784 51.8788 34.5748 50.0411 32.7566C48.2033 30.9384 45.9941 30.0293 43.4135 30.0293ZM58.4282 15.0147H50.9208C50.4125 15.0147 49.9726 14.8289 49.6012 14.4575C49.2297 14.086 49.044 13.6461 49.044 13.1378V1.87683C49.044 1.36852 49.2297 0.928641 49.6012 0.557185C49.9726 0.185728 50.4125 0 50.9208 0H58.4282C58.9365 0 59.3763 0.185728 59.7478 0.557185C60.1193 0.928641 60.305 1.36852 60.305 1.87683V13.1378C60.305 13.6461 60.1193 14.086 59.7478 14.4575C59.3763 14.8289 58.9365 15.0147 58.4282 15.0147ZM56.5513 5.6305C56.5513 5.12219 56.3656 4.68231 55.9941 4.31085C55.6227 3.93939 55.1828 3.75367 54.6745 3.75367C54.1662 3.75367 53.7263 3.93939 53.3548 4.31085C52.9834 4.68231 52.7977 5.12219 52.7977 5.6305V9.38416C52.7977 9.89247 52.9834 10.3324 53.3548 10.7038C53.7263 11.0753 54.1662 11.261 54.6745 11.261C55.1828 11.261 55.6227 11.0753 55.9941 10.7038C56.3656 10.3324 56.5513 9.89247 56.5513 9.38416V5.6305ZM43.4135 15.0147H35.9062C35.3978 15.0147 34.958 14.8289 34.5865 14.4575C34.2151 14.086 34.0293 13.6461 34.0293 13.1378C34.0293 12.6295 34.2151 12.1896 34.5865 11.8182C34.958 11.4467 35.3978 11.261 35.9062 11.261H37.783V3.75367H35.9062C35.3978 3.75367 34.958 3.56794 34.5865 3.19648C34.2151 2.82502 34.0293 2.38514 34.0293 1.87683C34.0293 1.36852 34.2151 0.928641 34.5865 0.557185C34.958 0.185728 35.3978 0 35.9062 0H39.6598C40.1681 0 40.608 0.185728 40.9795 0.557185C41.3509 0.928641 41.5367 1.36852 41.5367 1.87683V11.261H43.4135C43.9218 11.261 44.3617 11.4467 44.7331 11.8182C45.1046 12.1896 45.2903 12.6295 45.2903 13.1378C45.2903 13.6461 45.1046 14.086 44.7331 14.4575C44.3617 14.8289 43.9218 15.0147 43.4135 15.0147ZM28.3988 33.783H20.8915C20.3832 33.783 19.9433 33.5973 19.5718 33.2258C19.2004 32.8544 19.0147 32.4145 19.0147 31.9062V20.6452C19.0147 20.1369 19.2004 19.697 19.5718 19.3255C19.9433 18.9541 20.3832 18.7683 20.8915 18.7683H28.3988C28.9071 18.7683 29.347 18.9541 29.7185 19.3255C30.0899 19.697 30.2757 20.1369 30.2757 20.6452V31.9062C30.2757 32.4145 30.0899 32.8544 29.7185 33.2258C29.347 33.5973 28.9071 33.783 28.3988 33.783ZM26.522 24.3988C26.522 23.8905 26.3363 23.4506 25.9648 23.0792C25.5934 22.7077 25.1535 22.522 24.6452 22.522C24.1369 22.522 23.697 22.7077 23.3255 23.0792C22.9541 23.4506 22.7683 23.8905 22.7683 24.3988V28.1525C22.7683 28.6608 22.9541 29.1007 23.3255 29.4721C23.697 29.8436 24.1369 30.0293 24.6452 30.0293C25.1535 30.0293 25.5934 29.8436 25.9648 29.4721C26.3363 29.1007 26.522 28.6608 26.522 28.1525V24.3988ZM28.3988 15.0147H20.8915C20.3832 15.0147 19.9433 14.8289 19.5718 14.4575C19.2004 14.086 19.0147 13.6461 19.0147 13.1378C19.0147 12.6295 19.2004 12.1896 19.5718 11.8182C19.9433 11.4467 20.3832 11.261 20.8915 11.261H22.7683V3.75367H20.8915C20.3832 3.75367 19.9433 3.56794 19.5718 3.19648C19.2004 2.82502 19.0147 2.38514 19.0147 1.87683C19.0147 1.36852 19.2004 0.928641 19.5718 0.557185C19.9433 0.185728 20.3832 0 20.8915 0H24.6452C25.1535 0 25.5934 0.185728 25.9648 0.557185C26.3363 0.928641 26.522 1.36852 26.522 1.87683V11.261H28.3988C28.9071 11.261 29.347 11.4467 29.7185 11.8182C30.0899 12.1896 30.2757 12.6295 30.2757 13.1378C30.2757 13.6461 30.0899 14.086 29.7185 14.4575C29.347 14.8289 28.9071 15.0147 28.3988 15.0147ZM13.3842 52.5513H5.87683C5.36852 52.5513 4.92864 52.3656 4.55718 51.9941C4.18573 51.6227 4 51.1828 4 50.6745V39.4135C4 38.9052 4.18573 38.4653 4.55718 38.0938C4.92864 37.7224 5.36852 37.5367 5.87683 37.5367H13.3842C13.8925 37.5367 14.3324 37.7224 14.7038 38.0938C15.0753 38.4653 15.261 38.9052 15.261 39.4135V50.6745C15.261 51.1828 15.0753 51.6227 14.7038 51.9941C14.3324 52.3656 13.8925 52.5513 13.3842 52.5513V52.5513ZM11.5073 43.1672C11.5073 42.6588 11.3216 42.219 10.9501 41.8475C10.5787 41.4761 10.1388 41.2903 9.6305 41.2903C9.12219 41.2903 8.68231 41.4761 8.31085 41.8475C7.93939 42.219 7.75367 42.6588 7.75367 43.1672V46.9208C7.75367 47.4291 7.93939 47.869 8.31085 48.2405C8.68231 48.6119 9.12219 48.7977 9.6305 48.7977C10.1388 48.7977 10.5787 48.6119 10.9501 48.2405C11.3216 47.869 11.5073 47.4291 11.5073 46.9208V43.1672ZM13.3842 33.783H5.87683C5.36852 33.783 4.92864 33.5973 4.55718 33.2258C4.18573 32.8544 4 32.4145 4 31.9062C4 31.3978 4.18573 30.958 4.55718 30.5865C4.92864 30.2151 5.36852 30.0293 5.87683 30.0293H7.75367V22.522H5.87683C5.36852 22.522 4.92864 22.3363 4.55718 21.9648C4.18573 21.5934 4 21.1535 4 20.6452C4 20.1369 4.18573 19.697 4.55718 19.3255C4.92864 18.9541 5.36852 18.7683 5.87683 18.7683H9.6305C10.1388 18.7683 10.5787 18.9541 10.9501 19.3255C11.3216 19.697 11.5073 20.1369 11.5073 20.6452V30.0293H13.3842C13.8925 30.0293 14.3324 30.2151 14.7038 30.5865C15.0753 30.958 15.261 31.3978 15.261 31.9062C15.261 32.4145 15.0753 32.8544 14.7038 33.2258C14.3324 33.5973 13.8925 33.783 13.3842 33.783V33.783ZM13.3842 15.0147H5.87683C5.36852 15.0147 4.92864 14.8289 4.55718 14.4575C4.18573 14.086 4 13.6461 4 13.1378V1.87683C4 1.36852 4.18573 0.928641 4.55718 0.557185C4.92864 0.185728 5.36852 0 5.87683 0H13.3842C13.8925 0 14.3324 0.185728 14.7038 0.557185C15.0753 0.928641 15.261 1.36852 15.261 1.87683V13.1378C15.261 13.6461 15.0753 14.086 14.7038 14.4575C14.3324 14.8289 13.8925 15.0147 13.3842 15.0147V15.0147ZM11.5073 5.6305C11.5073 5.12219 11.3216 4.68231 10.9501 4.31085C10.5787 3.93939 10.1388 3.75367 9.6305 3.75367C9.12219 3.75367 8.68231 3.93939 8.31085 4.31085C7.93939 4.68231 7.75367 5.12219 7.75367 5.6305V9.38416C7.75367 9.89247 7.93939 10.3324 8.31085 10.7038C8.68231 11.0753 9.12219 11.261 9.6305 11.261C10.1388 11.261 10.5787 11.0753 10.9501 10.7038C11.3216 10.3324 11.5073 9.89247 11.5073 9.38416V5.6305ZM20.8915 41.2903C20.3832 41.2903 19.9433 41.1046 19.5718 40.7331C19.2004 40.3617 19.0147 39.9218 19.0147 39.4135C19.0147 38.9052 19.2004 38.4653 19.5718 38.0938C19.9433 37.7224 20.3832 37.5367 20.8915 37.5367H24.6452C25.1535 37.5367 25.5934 37.7224 25.9648 38.0938C26.3363 38.4653 26.522 38.9052 26.522 39.4135V48.7977H28.3988C28.9071 48.7977 29.347 48.9834 29.7185 49.3548C30.0899 49.7263 30.2757 50.1662 30.2757 50.6745C30.2757 51.1828 30.0899 51.6227 29.7185 51.9941C29.347 52.3656 28.9071 52.5513 28.3988 52.5513H20.8915C20.3832 52.5513 19.9433 52.3656 19.5718 51.9941C19.2004 51.6227 19.0147 51.1828 19.0147 50.6745C19.0147 50.1662 19.2004 49.7263 19.5718 49.3548C19.9433 48.9834 20.3832 48.7977 20.8915 48.7977H22.7683V41.2903H20.8915Z" fill="white"/>
</g>
<defs>
<filter id="filter0_d_10:25" x="0" y="0" width="68.0586" height="68" filterUnits="userSpaceOnUse" color-interpolation-filters="sRGB">
<feFlood flood-opacity="0" result="BackgroundImageFix"/>
<feColorMatrix in="SourceAlpha" type="matrix" values="0 0 0 0 0 0 0 0 0 0 0 0 0 0 0 0 0 0 127 0" result="hardAlpha"/>
<feOffset dy="4"/>
<feGaussianBlur stdDeviation="2"/>
<feComposite in2="hardAlpha" operator="out"/>
<feColorMatrix type="matrix" values="0 0 0 0 0 0 0 0 0 0 0 0 0 0 0 0 0 0 0.25 0"/>
<feBlend mode="normal" in2="BackgroundImageFix" result="effect1_dropShadow_10:25"/>
<feBlend mode="normal" in="SourceGraphic" in2="effect1_dropShadow_10:25" result="shape"/>
</filter>
</defs>
</svg>
