<svg width="53" height="60" viewBox="0 0 53 60" fill="none" xmlns="http://www.w3.org/2000/svg">
<g clip-path="url(#clip0_10:17)">
<path d="M48.7151 60H3.77368C2.71899 60 1.83032 59.6387 1.10767 58.916C0.38501 58.1934 0.0236816 57.3047 0.0236816 56.25V3.80859C0.0236816 2.75391 0.38501 1.86523 1.10767 1.14258C1.83032 0.419922 2.71899 0.0585938 3.77368 0.0585938H30.0237V20.6836C30.0237 21.1914 30.1995 21.6309 30.551 22.002C30.9026 22.373 31.3518 22.5586 31.8987 22.5586H52.4651V56.25C52.4651 57.3047 52.1038 58.1934 51.3811 58.916C50.6584 59.6387 49.7698 60 48.7151 60ZM21.8206 34.2188C22.2893 33.75 22.5237 33.1641 22.5237 32.4609C22.5237 31.7578 22.2893 31.1621 21.8206 30.6738C21.3518 30.1855 20.7854 29.9414 20.1213 29.9414C19.4573 29.9414 18.8909 30.1953 18.4221 30.7031L8.16821 39.4336C7.69946 39.9414 7.46509 40.5371 7.46509 41.2207C7.46509 41.9043 7.69946 42.5 8.16821 43.0078L18.4221 51.7383C18.8909 52.2461 19.4573 52.5 20.1213 52.5C20.7854 52.5 21.3518 52.2559 21.8206 51.7676C22.2893 51.2793 22.5237 50.6836 22.5237 49.9805C22.5237 49.2773 22.2893 48.6914 21.8206 48.2227L13.2659 41.25L21.8206 34.2188ZM44.3206 39.4336L34.1252 30.7031C33.6565 30.1953 33.0901 29.9414 32.426 29.9414C31.762 29.9414 31.1956 30.1855 30.7268 30.6738C30.2581 31.1621 30.0237 31.7578 30.0237 32.4609C30.0237 33.1641 30.2581 33.75 30.7268 34.2188L39.2229 41.25L30.7268 48.2227C30.2581 48.6914 30.0237 49.2773 30.0237 49.9805C30.0237 50.6836 30.2581 51.2793 30.7268 51.7676C31.1956 52.2559 31.762 52.5 32.426 52.5C33.0901 52.5 33.6565 52.2461 34.1252 51.7383L44.3206 43.0078C44.8284 42.5 45.0823 41.9043 45.0823 41.2207C45.0823 40.5371 44.8284 39.9414 44.3206 39.4336ZM33.7737 0C34.7893 0 35.6487 0.351562 36.3518 1.05469L51.3518 16.1133C52.094 16.8555 52.4651 17.7539 52.4651 18.8086H33.7737V0Z" fill="white"/>
</g>
<defs>
<clipPath id="clip0_10:17">
<rect width="52.5" height="60" fill="white"/>
</clipPath>
</defs>
</svg>
