<svg width="28" height="24" viewBox="0 0 28 24" fill="none" xmlns="http://www.w3.org/2000/svg">
<g filter="url(#filter0_d)">
<path d="M21 0H7C6.20435 0 5.44129 0.316071 4.87868 0.87868C4.31607 1.44129 4 2.20435 4 3V13C4 13.7956 4.31607 14.5587 4.87868 15.1213C5.44129 15.6839 6.20435 16 7 16H21C21.7956 16 22.5587 15.6839 23.1213 15.1213C23.6839 14.5587 24 13.7956 24 13V3C24 2.20435 23.6839 1.44129 23.1213 0.87868C22.5587 0.316071 21.7956 0 21 0V0ZM20.33 2L14 6.75L7.67 2H20.33ZM21 14H7C6.73478 14 6.48043 13.8946 6.29289 13.7071C6.10536 13.5196 6 13.2652 6 13V3.25L13.4 8.8C13.5731 8.92982 13.7836 9 14 9C14.2164 9 14.4269 8.92982 14.6 8.8L22 3.25V13C22 13.2652 21.8946 13.5196 21.7071 13.7071C21.5196 13.8946 21.2652 14 21 14Z" fill="black"/>
<path d="M20.6301 2.39992L21.8294 1.5H20.33H7.67H6.17063L7.3699 2.39992L13.6999 7.14992L14 7.37512L14.3001 7.14992L20.6301 2.39992ZM6.3 2.85L5.5 2.25V3.25V13C5.5 13.3978 5.65804 13.7794 5.93934 14.0607C6.22065 14.342 6.60218 14.5 7 14.5H21C21.3978 14.5 21.7794 14.342 22.0607 14.0607C22.342 13.7794 22.5 13.3978 22.5 13V3.25V2.25L21.7 2.85L14.3 8.4C14.2135 8.46491 14.1082 8.5 14 8.5C13.8918 8.5 13.7865 8.46491 13.7 8.4L6.3 2.85ZM7 0.5H21C21.663 0.5 22.2989 0.763392 22.7678 1.23223C23.2366 1.70107 23.5 2.33696 23.5 3V13C23.5 13.663 23.2366 14.2989 22.7678 14.7678C22.2989 15.2366 21.663 15.5 21 15.5H7C6.33696 15.5 5.70107 15.2366 5.23223 14.7678C4.76339 14.2989 4.5 13.663 4.5 13V3C4.5 2.33696 4.76339 1.70107 5.23223 1.23223C5.70107 0.763392 6.33696 0.5 7 0.5Z" stroke="black"/>
</g>
<defs>
<filter id="filter0_d" x="0" y="0" width="28" height="24" filterUnits="userSpaceOnUse" color-interpolation-filters="sRGB">
<feFlood flood-opacity="0" result="BackgroundImageFix"/>
<feColorMatrix in="SourceAlpha" type="matrix" values="0 0 0 0 0 0 0 0 0 0 0 0 0 0 0 0 0 0 127 0"/>
<feOffset dy="4"/>
<feGaussianBlur stdDeviation="2"/>
<feColorMatrix type="matrix" values="0 0 0 0 0 0 0 0 0 0 0 0 0 0 0 0 0 0 0.25 0"/>
<feBlend mode="normal" in2="BackgroundImageFix" result="effect1_dropShadow"/>
<feBlend mode="normal" in="SourceGraphic" in2="effect1_dropShadow" result="shape"/>
</filter>
</defs>
</svg>
