<svg width="32" height="32" viewBox="0 0 32 32" fill="none" xmlns="http://www.w3.org/2000/svg">
<g clip-path="url(#clip0)" filter="url(#filter0_d)">
<path fill-rule="evenodd" clip-rule="evenodd" d="M21.415 14.382C21.117 14.233 19.656 13.515 19.384 13.415C19.112 13.316 18.914 13.267 18.715 13.565C18.517 13.861 17.948 14.531 17.775 14.729C17.601 14.928 17.428 14.952 17.131 14.804C16.834 14.654 15.876 14.341 14.741 13.329C13.858 12.541 13.261 11.568 13.088 11.27C12.915 10.973 13.069 10.812 13.218 10.664C13.352 10.531 13.515 10.317 13.664 10.144C13.813 9.96998 13.862 9.84598 13.961 9.64698C14.061 9.44898 14.011 9.27598 13.936 9.12698C13.862 8.97798 13.268 7.51498 13.02 6.91998C12.779 6.34098 12.534 6.41998 12.352 6.40998C12.178 6.40198 11.98 6.39998 11.782 6.39998C11.584 6.39998 11.262 6.47398 10.99 6.77198C10.717 7.06898 9.95 7.78798 9.95 9.25098C9.95 10.713 11.014 12.126 11.163 12.325C11.312 12.523 13.258 15.525 16.239 16.812C16.949 17.118 17.502 17.301 17.933 17.437C18.645 17.664 19.293 17.632 19.805 17.555C20.375 17.47 21.563 16.836 21.811 16.142C22.058 15.448 22.058 14.853 21.984 14.729C21.91 14.605 21.712 14.531 21.414 14.382H21.415ZM15.993 21.785H15.989C14.2184 21.7853 12.4804 21.3093 10.957 20.407L10.597 20.193L6.855 21.175L7.854 17.527L7.619 17.153C6.62914 15.5773 6.10529 13.7538 6.108 11.893C6.11 6.44298 10.544 2.00898 15.997 2.00898C18.637 2.00898 21.119 3.03898 22.985 4.90698C23.9054 5.82356 24.6349 6.91355 25.1313 8.11388C25.6277 9.31421 25.8811 10.6011 25.877 11.9C25.875 17.35 21.441 21.785 15.993 21.785V21.785ZM24.405 3.48798C23.3032 2.3789 21.9922 1.49952 20.5481 0.90078C19.1039 0.302044 17.5553 -0.00413728 15.992 -2.00576e-05C9.438 -2.00576e-05 4.102 5.33498 4.1 11.892C4.099 13.988 4.646 16.034 5.687 17.837L4 24L10.304 22.346C12.0479 23.2961 14.0021 23.7939 15.988 23.794H15.993C22.547 23.794 27.883 18.459 27.885 11.901C27.8898 10.3383 27.5848 8.79008 26.9874 7.34601C26.3901 5.90195 25.5124 4.59065 24.405 3.48798" fill="white"/>
</g>
<defs>
<filter id="filter0_d" x="0" y="0" width="32" height="32" filterUnits="userSpaceOnUse" color-interpolation-filters="sRGB">
<feFlood flood-opacity="0" result="BackgroundImageFix"/>
<feColorMatrix in="SourceAlpha" type="matrix" values="0 0 0 0 0 0 0 0 0 0 0 0 0 0 0 0 0 0 127 0"/>
<feOffset dy="4"/>
<feGaussianBlur stdDeviation="2"/>
<feColorMatrix type="matrix" values="0 0 0 0 0 0 0 0 0 0 0 0 0 0 0 0 0 0 0.25 0"/>
<feBlend mode="normal" in2="BackgroundImageFix" result="effect1_dropShadow"/>
<feBlend mode="normal" in="SourceGraphic" in2="effect1_dropShadow" result="shape"/>
</filter>
<clipPath id="clip0">
<rect width="24" height="24" fill="white" transform="translate(4)"/>
</clipPath>
</defs>
</svg>
