<svg width="30" height="30" viewBox="0 0 30 30" fill="none" xmlns="http://www.w3.org/2000/svg">
<g clip-path="url(#clip0_80_212)">
<path d="M3.852 0.000976562H26.1498C28.2682 0.000976562 30 1.73338 30 3.85178V26.1496C30 28.2674 28.2682 29.9986 26.1498 29.9986H3.852C1.7336 29.9986 0 28.2673 0 26.1496V3.85178C0 1.73338 1.7336 0.000976562 3.852 0.000976562ZM21.8546 3.33268C21.1108 3.33268 20.5041 3.94178 20.5041 4.68518V7.91658C20.5041 8.66028 21.1108 9.26798 21.8546 9.26798H25.2449C25.9875 9.26798 26.5955 8.66028 26.5955 7.91658V4.68518C26.5955 3.94178 25.9875 3.33268 25.2449 3.33268H21.8546ZM26.6084 12.6866H23.9688C24.2191 13.5041 24.3548 14.3662 24.3548 15.2625C24.3548 20.2507 20.1782 24.2965 15.0282 24.2965C9.8795 24.2965 5.7028 20.2507 5.7028 15.2625C5.7028 14.3662 5.8398 13.5041 6.0889 12.6866H3.335V25.3598C3.335 26.0161 3.8709 26.55 4.5266 26.55H25.4173C26.0736 26.55 26.6084 26.0161 26.6084 25.3598V12.6866ZM15.0283 9.09758C11.7023 9.09758 9.0043 11.7104 9.0043 14.9364C9.0043 18.1591 11.7023 20.7739 15.0283 20.7739C18.3561 20.7739 21.0542 18.1591 21.0542 14.9364C21.0542 11.7103 18.3561 9.09758 15.0283 9.09758Z" fill="black"/>
</g>
<defs>
<clipPath id="clip0_80_212">
<rect width="30" height="30" fill="white"/>
</clipPath>
</defs>
</svg>
