<svg width="25" height="25" viewBox="0 0 25 25" fill="none" xmlns="http://www.w3.org/2000/svg">
<g clip-path="url(#clip0_80_169)">
<path d="M24.7321 18.9594C23.8015 17.2001 20.5698 15.2924 20.4275 15.209C20.0122 14.9727 19.5789 14.8475 19.1734 14.8475C18.5704 14.8475 18.0768 15.1237 17.7779 15.6261C17.3052 16.1916 16.7189 16.8525 16.5766 16.9549C15.4754 17.702 14.6134 17.6172 13.6596 16.6634L8.33627 11.3396C7.38849 10.3918 7.30136 9.51912 8.04336 8.42396C8.14718 8.28075 8.80807 7.69401 9.37349 7.22082C9.73407 7.00624 9.98155 6.68737 10.09 6.29621C10.2341 5.77575 10.128 5.16352 9.78783 4.56704C9.70765 4.42986 7.79912 1.19768 6.04075 0.267516C5.71262 0.0937184 5.34278 0.00195312 4.97201 0.00195312C4.36117 0.00195312 3.78647 0.240172 3.35453 0.671654L2.17827 1.84745C0.317934 3.70732 -0.355474 5.81561 0.175652 8.11344C0.61872 10.0285 1.90992 12.0663 4.01403 14.1699L10.8292 20.9851C13.4923 23.6482 16.0311 24.9987 18.3753 24.9987C18.3753 24.9987 18.3753 24.9987 18.3758 24.9987C20.0998 24.9987 21.7071 24.266 23.1517 22.8214L24.3275 21.6456C25.0422 20.9314 25.2044 19.8515 24.7321 18.9594Z" fill="black"/>
</g>
<defs>
<clipPath id="clip0_80_169">
<rect width="25" height="25" fill="white"/>
</clipPath>
</defs>
</svg>
