<svg width="30" height="30" viewBox="0 0 30 30" fill="none" xmlns="http://www.w3.org/2000/svg">
<g clip-path="url(#clip0_80_191)">
<path d="M22.1984 17.2383C22.14 17.2102 19.9529 16.1333 19.5643 15.9934C19.4056 15.9364 19.2357 15.8808 19.0549 15.8808C18.7595 15.8808 18.5115 16.028 18.3182 16.3171C18.0997 16.6418 17.4384 17.4149 17.234 17.6458C17.2073 17.6763 17.1709 17.7127 17.1491 17.7127C17.1295 17.7127 16.791 17.5734 16.6886 17.5289C14.3424 16.5097 12.5616 14.059 12.3174 13.6457C12.2826 13.5863 12.2811 13.5593 12.2808 13.5593C12.2894 13.5278 12.3683 13.4488 12.409 13.4079C12.5281 13.2901 12.6572 13.1347 12.782 12.9844C12.8412 12.9132 12.9004 12.8419 12.9585 12.7747C13.1397 12.5639 13.2204 12.4003 13.3139 12.2108L13.3629 12.1123C13.5912 11.6587 13.3962 11.2759 13.3332 11.1523C13.2814 11.0489 12.358 8.82009 12.2598 8.58593C12.0237 8.0209 11.7117 7.75781 11.2782 7.75781C11.2379 7.75781 11.2782 7.75781 11.1095 7.76492C10.904 7.77359 9.78536 7.92086 9.29075 8.23265C8.76624 8.56333 7.8789 9.61742 7.8789 11.4712C7.8789 13.1396 8.93767 14.7149 9.39224 15.314C9.40354 15.3291 9.42429 15.3598 9.45439 15.4038C11.1953 17.9462 13.3655 19.8304 15.5655 20.7092C17.6835 21.5553 18.6865 21.6531 19.2567 21.6531C19.2568 21.6531 19.2568 21.6531 19.2568 21.6531C19.4964 21.6531 19.6882 21.6343 19.8574 21.6176L19.9647 21.6074C20.6964 21.5425 22.3043 20.7093 22.6701 19.6929C22.9582 18.8924 23.0342 18.0177 22.8425 17.7003C22.7112 17.4844 22.4849 17.3758 22.1984 17.2383Z" fill="black"/>
<path d="M15.2665 0C7.14157 0 0.53144 6.56045 0.53144 14.6243C0.53144 17.2325 1.22943 19.7855 2.55167 22.0199L0.0208556 29.4853C-0.0262872 29.6245 0.00877769 29.7784 0.111732 29.8832C0.18605 29.9591 0.286862 30 0.389817 30C0.429265 30 0.469005 29.9941 0.507771 29.9817L8.29219 27.508C10.4224 28.6462 12.83 29.247 15.2666 29.247C23.3908 29.2471 30.0002 22.6873 30.0002 14.6243C30.0002 6.56045 23.3908 0 15.2665 0ZM15.2665 26.2007C12.9737 26.2007 10.7531 25.5387 8.84417 24.2861C8.77998 24.2439 8.70547 24.2223 8.63047 24.2223C8.59082 24.2223 8.55108 24.2283 8.51241 24.2406L4.6129 25.4801L5.87173 21.7663C5.91245 21.6461 5.89209 21.5135 5.81709 21.411C4.36345 19.4248 3.59504 17.0781 3.59504 14.6243C3.59504 8.24026 8.83082 3.04636 15.2664 3.04636C21.7012 3.04636 26.9364 8.24026 26.9364 14.6243C26.9365 21.0076 21.7014 26.2007 15.2665 26.2007Z" fill="black"/>
</g>
<defs>
<clipPath id="clip0_80_191">
<rect width="30" height="30" fill="white"/>
</clipPath>
</defs>
</svg>
