<svg width="25" height="25" viewBox="0 0 25 25" fill="none" xmlns="http://www.w3.org/2000/svg">
<g opacity="0.7">
<path d="M13.2812 0C6.79688 0 1.5625 5.23438 1.5625 11.7188C1.5625 14.375 2.42187 16.875 4.0625 18.9062L2.42187 23.9062C2.34375 24.2188 2.42188 24.5312 2.65625 24.7656C2.73438 24.9219 2.96875 25 3.125 25C3.20312 25 3.35938 25 3.4375 24.9219L8.82812 22.5C10.2344 23.125 11.7188 23.4375 13.2812 23.4375C19.7656 23.4375 25 18.2031 25 11.7188C25 5.23438 19.7656 0 13.2812 0ZM20.0781 16.0156C19.7656 16.9531 18.5938 17.7344 17.5781 17.8906C17.3438 17.9688 17.1094 17.9688 16.7969 17.9688C16.1719 17.9688 15.2344 17.8125 13.5938 17.1094C11.7188 16.3281 9.84375 14.6875 8.35938 12.5781V12.5C7.89062 11.7969 7.03125 10.4688 7.03125 9.0625C7.03125 7.34375 7.89062 6.48438 8.20312 6.09375C8.59375 5.70312 9.14062 5.46875 9.76562 5.46875C9.92188 5.46875 10 5.46875 10.1562 5.46875C10.7031 5.46875 11.0938 5.625 11.4844 6.40625L11.7969 7.03125C12.0312 7.65625 12.3438 8.35938 12.4219 8.4375C12.6562 8.90625 12.6562 9.29688 12.4219 9.6875C12.3438 9.92188 12.1875 10.0781 12.0312 10.2344C11.9531 10.3906 11.875 10.4688 11.7969 10.4688C11.7188 10.5469 11.7188 10.5469 11.6406 10.625C11.875 11.0156 12.3438 11.7188 12.9688 12.2656C13.9062 13.125 14.6094 13.3594 15 13.5156C15.1563 13.3594 15.3125 13.0469 15.5469 12.8125L15.625 12.6563C16.0156 12.1094 16.6406 11.9531 17.2656 12.1875C17.5781 12.3438 19.2969 13.125 19.2969 13.125L19.4531 13.2031C19.6875 13.3594 20 13.4375 20.1562 13.75C20.4688 14.4531 20.2344 15.4688 20.0781 16.0156Z" fill="#242424"/>
</g>
</svg>
