<svg width="21" height="20" viewBox="0 0 21 20" fill="none" xmlns="http://www.w3.org/2000/svg">
<path fill-rule="evenodd" clip-rule="evenodd" d="M19.0401 10.0001C19.0401 9.8343 18.9742 9.67533 18.857 9.55812C18.7398 9.44091 18.5808 9.37506 18.4151 9.37506H3.67381L7.60756 5.44256C7.66567 5.38445 7.71176 5.31546 7.74321 5.23954C7.77466 5.16361 7.79085 5.08224 7.79085 5.00006C7.79085 4.91788 7.77466 4.8365 7.74321 4.76058C7.71176 4.68465 7.66567 4.61567 7.60756 4.55756C7.54945 4.49945 7.48046 4.45335 7.40454 4.4219C7.32861 4.39045 7.24724 4.37427 7.16506 4.37427C7.08288 4.37427 7.0015 4.39045 6.92558 4.4219C6.84965 4.45335 6.78067 4.49945 6.72256 4.55756L1.72256 9.55756C1.66435 9.61561 1.61818 9.68458 1.58667 9.76052C1.55516 9.83645 1.53894 9.91785 1.53894 10.0001C1.53894 10.0823 1.55516 10.1637 1.58667 10.2396C1.61818 10.3155 1.66435 10.3845 1.72256 10.4426L6.72256 15.4426C6.78067 15.5007 6.84965 15.5468 6.92558 15.5782C7.0015 15.6097 7.08288 15.6258 7.16506 15.6258C7.24724 15.6258 7.32861 15.6097 7.40454 15.5782C7.48046 15.5468 7.54945 15.5007 7.60756 15.4426C7.66567 15.3844 7.71176 15.3155 7.74321 15.2395C7.77466 15.1636 7.79085 15.0822 7.79085 15.0001C7.79085 14.9179 7.77466 14.8365 7.74321 14.7606C7.71176 14.6847 7.66567 14.6157 7.60756 14.5576L3.67381 10.6251H18.4151C18.5808 10.6251 18.7398 10.5592 18.857 10.442C18.9742 10.3248 19.0401 10.1658 19.0401 10.0001Z" fill="#262626"/>
</svg>
