<svg width="60" height="60" viewBox="0 0 60 60" fill="none" xmlns="http://www.w3.org/2000/svg">
<g clip-path="url(#clip0_10:12)">
<path d="M16.773 45.0006L9.81034 49.068L5.66683 44.9245L9.43124 37.8917C8.70067 36.6083 8.12733 35.2415 7.72358 33.821L0.0847168 31.746V25.876L7.68269 23.6443C8.0728 22.2279 8.63073 20.8511 9.35847 19.5488L5.49421 12.6399L9.63772 8.49654L16.6019 12.4085C17.9304 11.6772 19.2929 11.1292 20.6673 10.7511L22.8164 2.91443H28.6863L30.8975 10.9155C32.1879 11.3109 33.4324 11.8429 34.6099 12.5022L41.9224 8.32392L46.0658 12.4674L41.9086 19.8494C42.9752 21.81 43.7016 24.0051 43.9871 26.3791H36.6539C35.1778 19.0692 26.7367 14.9181 19.8926 18.8638C12.3653 23.2033 12.3653 34.1113 19.8926 38.4508C22.9392 40.2072 25.0132 40.4905 27.7004 39.342V44.9647L22.4405 48.1031C22.4405 48.1031 18.1536 45.7427 16.7728 45.0007L16.773 45.0006ZM32.3866 50.9786C30.5007 51.6161 29.0412 51.2335 27.5241 48.497L23.2166 51.1358C24.9625 55.5016 31.155 57.3941 35.6825 54.889C38.7212 52.8778 39.188 50.8108 39.1216 44.385V29.7848H33.8025V46.5226C33.8628 48.5055 33.7814 50.5072 32.3866 50.9786ZM56.6399 54.6747C59.1753 53.2458 60.6348 50.4778 59.8902 46.9152C58.6908 40.2009 49.6311 40.2009 48.5569 37.4568C47.3771 33.4956 52.8303 32.8693 54.343 36.3963L58.4893 33.7357C55.5218 28.0317 47.4538 28.5963 44.7596 32.0653C42.0793 35.1076 42.8432 40.4322 46.1062 42.6239C49.3207 45.0365 54.0425 45.5849 54.6452 47.8418C55.2316 50.6036 52.6146 51.4959 50.0137 51.1793C48.0971 50.7811 47.0311 49.8074 45.8782 48.0355L41.5762 50.5168C44.4772 56.3069 52.2724 57.1363 56.6399 54.6746V54.6747Z" fill="#262626"/>
</g>
<defs>
<clipPath id="clip0_10:12">
<rect width="60" height="60" fill="white"/>
</clipPath>
</defs>
</svg>
