<svg width="60" height="45" viewBox="0 0 60 45" fill="none" xmlns="http://www.w3.org/2000/svg">
<path d="M30 22.5L0 7.32422V3.75C0 2.69531 0.371094 1.80664 1.11328 1.08398C1.85547 0.361328 2.73437 0 3.75 0H56.25C57.2656 0 58.1445 0.361328 58.8867 1.08398C59.6289 1.80664 60 2.69531 60 3.75V7.32422L30 22.5ZM28.125 26.25H31.875L60 11.6602V41.25C60 42.2656 59.6289 43.1445 58.8867 43.8867C58.1445 44.6289 57.2656 45 56.25 45H3.75C2.73437 45 1.85547 44.6289 1.11328 43.8867C0.371094 43.1445 0 42.2656 0 41.25V11.6602L28.125 26.25Z" fill="#262626"/>
</svg>
