<svg width="1314" height="973" viewBox="0 0 1314 973" fill="none" xmlns="http://www.w3.org/2000/svg">
<path d="M14 100C30.4 -50.7998 39.1666 4.16684 41.5 50.5002L78.5 77C109.833 95.5 174.9 132.2 184.5 131C196.5 129.5 242 125 293.5 100C345 75.0004 382.5 108.5 416 109.5C449.5 110.5 495.5 174.5 503.5 191C511.5 207.5 533.5 243 541 304C548.5 365 529 349.5 572 420.5C615 491.5 709 436 804 435C899 434 856.5 369 916.5 304C976.5 239 1022.5 264.5 1101.5 259.5C1180.5 254.5 1154.5 273 1232.5 369C1310.5 465 1235 432.5 1232.5 518C1230 603.5 1209.5 545.5 1101.5 567C993.5 588.5 942 582.5 906 586C870 589.5 883 594.5 836 624.5C789 654.5 823 657 856.5 695.5C890 734 976.5 706 1030.5 705C1084.5 704 1152 710 1223 729C1294 748 1280.5 760.5 1307 801C1333.5 841.5 1267 882.5 1223 938C1179 993.5 1106.5 964.5 999.5 964.5C892.5 964.5 878.5 951 823 917.5C767.5 884 782 873 700.5 851.5C619 830 616.5 875.5 596 882.5C575.5 889.5 530 906.5 459.5 917.5C389 928.5 308 885 274.5 862.5C241 840 207 780.5 192.5 688C178 595.5 257.5 640 308 602C358.5 564 277 503.5 207 495C137 486.5 130.5 433.5 59.5 378.5C-11.5 323.5 -6.50004 288.5 14 100Z" stroke="black"/>
</svg>
