<svg width="320" height="267" viewBox="0 0 320 267" fill="none" xmlns="http://www.w3.org/2000/svg">
<path d="M12.5 25.9999C5.66662 46.1666 -5.10005 89.1999 6.49995 99.9999C21 113.5 86 150.5 95 138C104 125.5 182.5 130.5 185.5 138C188.5 145.5 216 318.5 144 249.5C72 180.5 130.5 169.5 144 175C154.8 179.4 210.167 200.167 236.5 210C266.5 212.5 324.8 211.4 318 187C309.5 156.5 284 114 275.5 107C267 99.9999 216.5 87.9999 201 93.9999C185.5 99.9999 137 107 130.5 107C124 107 71.5 110 68.5 90.4999C65.5 70.9999 69.5 56.4999 72 49.9999C74.5 43.4999 87.5 18.9999 86 13.9999C84.5 8.9999 80.5 0.9999 64 1.4999C50.8 1.8999 26.1667 17.9999 15.5 25.9999H12.5Z" stroke="black"/>
</svg>
