<svg width="30" height="30" viewBox="0 0 30 30" fill="none" xmlns="http://www.w3.org/2000/svg">
<path d="M15 15C18.4518 15 21.25 12.2018 21.25 8.75C21.25 5.29822 18.4518 2.5 15 2.5C11.5482 2.5 8.75 5.29822 8.75 8.75C8.75 12.2018 11.5482 15 15 15Z" stroke="black" stroke-width="2.5"/>
<path d="M21.25 17.5H21.69C22.6038 17.5003 23.4862 17.8342 24.1711 18.4391C24.8561 19.044 25.2967 19.8782 25.41 20.785L25.8987 24.69C25.9427 25.0418 25.9113 25.3989 25.8067 25.7376C25.7021 26.0764 25.5267 26.389 25.292 26.6547C25.0574 26.9205 24.7689 27.1333 24.4457 27.279C24.1225 27.4248 23.772 27.5001 23.4175 27.5H6.5825C6.22798 27.5001 5.87749 27.4248 5.55431 27.279C5.23112 27.1333 4.94263 26.9205 4.70797 26.6547C4.47331 26.389 4.29786 26.0764 4.19326 25.7376C4.08865 25.3989 4.05729 25.0418 4.10125 24.69L4.58875 20.785C4.70212 19.8778 5.14302 19.0432 5.82854 18.4383C6.51406 17.8333 7.39697 17.4996 8.31125 17.5H8.75" stroke="black" stroke-width="2.5" stroke-linecap="round" stroke-linejoin="round"/>
</svg>
