<svg width="24" height="24" viewBox="0 0 24 24" fill="none" xmlns="http://www.w3.org/2000/svg">
<g clip-path="url(#clip0)">
<path d="M24 2.13599V21.912C24 22.488 23.792 22.984 23.376 23.4C22.96 23.816 22.464 24.024 21.888 24.024H2.112C1.536 24.024 1.04 23.816 0.624 23.4C0.208 22.984 0 22.488 0 21.912V2.13599C0 1.55999 0.208 1.06399 0.624 0.647987C1.04 0.231987 1.536 0.0239868 2.112 0.0239868H21.888C22.464 0.0239868 22.96 0.231987 23.376 0.647987C23.792 1.06399 24 1.55999 24 2.13599ZM18.24 14.808C18.24 13.88 17.984 13.116 17.472 12.516C16.96 11.916 16.232 11.52 15.288 11.328V11.256C15.912 11 16.4 10.592 16.752 10.032C17.104 9.47199 17.28 8.84799 17.28 8.15999C17.28 7.42399 17.124 6.81999 16.812 6.34799C16.5 5.87599 16.056 5.53599 15.48 5.32799C14.904 5.11999 14.356 4.98399 13.836 4.91999C13.316 4.85599 12.696 4.82399 11.976 4.82399H6.72V19.224H12.48C13.232 19.224 13.936 19.148 14.592 18.996C15.248 18.844 15.856 18.608 16.416 18.288C16.976 17.968 17.42 17.508 17.748 16.908C18.076 16.308 18.24 15.608 18.24 14.808ZM13.608 8.90399C13.608 9.22399 13.552 9.48799 13.44 9.69599C13.328 9.90399 13.204 10.064 13.068 10.176C12.932 10.288 12.724 10.368 12.444 10.416C12.164 10.464 11.944 10.492 11.784 10.5C11.624 10.508 11.376 10.512 11.04 10.512H10.32V7.46399H11.256C11.544 7.46399 11.764 7.46799 11.916 7.47599C12.068 7.48399 12.272 7.51199 12.528 7.55999C12.784 7.60799 12.976 7.67999 13.104 7.77599C13.232 7.87199 13.348 8.01599 13.452 8.20799C13.556 8.39999 13.608 8.63199 13.608 8.90399ZM14.52 14.736C14.52 14.928 14.496 15.108 14.448 15.276C14.4 15.444 14.344 15.588 14.28 15.708C14.216 15.828 14.116 15.936 13.98 16.032C13.844 16.128 13.728 16.208 13.632 16.272C13.536 16.336 13.392 16.388 13.2 16.428C13.008 16.468 12.86 16.5 12.756 16.524C12.652 16.548 12.484 16.564 12.252 16.572C12.02 16.58 11.86 16.584 11.772 16.584H10.32V12.984H12.156L12.708 13.008L13.296 13.092L13.752 13.284L14.184 13.596L14.412 14.064L14.52 14.736Z" fill="white"/>
</g>
<defs>
<clipPath id="clip0">
<rect width="24" height="24" fill="white"/>
</clipPath>
</defs>
</svg>
